<svg xmlns="http://www.w3.org/2000/svg" width="360" height="325" viewBox="0 0 360 325" role="img" aria-label="AI Ticket Bot: 199,045 tickets handled across 4,426 Discord servers, 47 of every 100 resolved by AI, 3.7s average first reply." font-family="-apple-system,BlinkMacSystemFont,'Segoe UI',Helvetica,Arial,sans-serif"><text x="0" y="54" font-size="60" fill="#d9730d" font-weight="700">199,045</text><text x="0" y="82" font-size="16" fill="#767d86">tickets handled across</text><text x="0" y="104" font-size="16" fill="#767d86">4,426 Discord servers</text><rect x="0.0" y="128.0" width="14.2" height="14.2" rx="2.6" fill="#d9730d"/><rect x="0.0" y="146.2" width="14.2" height="14.2" rx="2.6" fill="#d9730d"/><rect x="0.0" y="164.4" width="14.2" height="14.2" rx="2.6" fill="#d9730d"/><rect x="0.0" y="182.6" width="14.2" height="14.2" rx="2.6" fill="#d9730d"/><rect x="0.0" y="200.8" width="14.2" height="14.2" rx="2.6" fill="#d9730d"/><rect x="18.2" y="128.0" width="14.2" height="14.2" rx="2.6" fill="#d9730d"/><rect x="18.2" y="146.2" width="14.2" height="14.2" rx="2.6" fill="#d9730d"/><rect x="18.2" y="164.4" width="14.2" height="14.2" rx="2.6" fill="#d9730d"/><rect x="18.2" y="182.6" width="14.2" height="14.2" rx="2.6" fill="#d9730d"/><rect x="18.2" y="200.8" width="14.2" height="14.2" rx="2.6" fill="#d9730d"/><rect x="36.4" y="128.0" width="14.2" height="14.2" rx="2.6" fill="#d9730d"/><rect x="36.4" y="146.2" width="14.2" height="14.2" rx="2.6" fill="#d9730d"/><rect x="36.4" y="164.4" width="14.2" height="14.2" rx="2.6" fill="#d9730d"/><rect x="36.4" y="182.6" width="14.2" height="14.2" rx="2.6" fill="#d9730d"/><rect x="36.4" y="200.8" width="14.2" height="14.2" rx="2.6" fill="#d9730d"/><rect x="54.6" y="128.0" width="14.2" height="14.2" rx="2.6" fill="#d9730d"/><rect x="54.6" y="146.2" width="14.2" height="14.2" rx="2.6" fill="#d9730d"/><rect x="54.6" y="164.4" width="14.2" height="14.2" rx="2.6" fill="#d9730d"/><rect x="54.6" y="182.6" width="14.2" height="14.2" rx="2.6" fill="#d9730d"/><rect x="54.6" y="200.8" width="14.2" height="14.2" rx="2.6" fill="#d9730d"/><rect x="72.8" y="128.0" width="14.2" height="14.2" rx="2.6" fill="#d9730d"/><rect x="72.8" y="146.2" width="14.2" height="14.2" rx="2.6" fill="#d9730d"/><rect x="72.8" y="164.4" width="14.2" height="14.2" rx="2.6" fill="#d9730d"/><rect x="72.8" y="182.6" width="14.2" height="14.2" rx="2.6" fill="#d9730d"/><rect x="72.8" y="200.8" width="14.2" height="14.2" rx="2.6" fill="#d9730d"/><rect x="91.0" y="128.0" width="14.2" height="14.2" rx="2.6" fill="#d9730d"/><rect x="91.0" y="146.2" width="14.2" height="14.2" rx="2.6" fill="#d9730d"/><rect x="91.0" y="164.4" width="14.2" height="14.2" rx="2.6" fill="#d9730d"/><rect x="91.0" y="182.6" width="14.2" height="14.2" rx="2.6" fill="#d9730d"/><rect x="91.0" y="200.8" width="14.2" height="14.2" rx="2.6" fill="#d9730d"/><rect x="109.2" y="128.0" width="14.2" height="14.2" rx="2.6" fill="#d9730d"/><rect x="109.2" y="146.2" width="14.2" height="14.2" rx="2.6" fill="#d9730d"/><rect x="109.2" y="164.4" width="14.2" height="14.2" rx="2.6" fill="#d9730d"/><rect x="109.2" y="182.6" width="14.2" height="14.2" rx="2.6" fill="#d9730d"/><rect x="109.2" y="200.8" width="14.2" height="14.2" rx="2.6" fill="#d9730d"/><rect x="127.4" y="128.0" width="14.2" height="14.2" rx="2.6" fill="#d9730d"/><rect x="127.4" y="146.2" width="14.2" height="14.2" rx="2.6" fill="#d9730d"/><rect x="127.4" y="164.4" width="14.2" height="14.2" rx="2.6" fill="#d9730d"/><rect x="127.4" y="182.6" width="14.2" height="14.2" rx="2.6" fill="#d9730d"/><rect x="127.4" y="200.8" width="14.2" height="14.2" rx="2.6" fill="#d9730d"/><rect x="145.6" y="128.0" width="14.2" height="14.2" rx="2.6" fill="#d9730d"/><rect x="145.6" y="146.2" width="14.2" height="14.2" rx="2.6" fill="#d9730d"/><rect x="145.6" y="164.4" width="14.2" height="14.2" rx="2.6" fill="#d9730d"/><rect x="145.6" y="182.6" width="14.2" height="14.2" rx="2.6" fill="#d9730d"/><rect x="145.6" y="200.8" width="14.2" height="14.2" rx="2.6" fill="#d9730d"/><rect x="163.8" y="128.0" width="14.2" height="14.2" rx="2.6" fill="#d9730d"/><rect x="163.8" y="146.2" width="14.2" height="14.2" rx="2.6" fill="#d9730d"/><rect x="163.8" y="164.4" width="14.2" height="14.2" rx="2.6" fill="#8b949e" opacity="0.3"/><rect x="163.8" y="182.6" width="14.2" height="14.2" rx="2.6" fill="#8b949e" opacity="0.3"/><rect x="163.8" y="200.8" width="14.2" height="14.2" rx="2.6" fill="#8b949e" opacity="0.3"/><rect x="182.0" y="128.0" width="14.2" height="14.2" rx="2.6" fill="#8b949e" opacity="0.3"/><rect x="182.0" y="146.2" width="14.2" height="14.2" rx="2.6" fill="#8b949e" opacity="0.3"/><rect x="182.0" y="164.4" width="14.2" height="14.2" rx="2.6" fill="#8b949e" opacity="0.3"/><rect x="182.0" y="182.6" width="14.2" height="14.2" rx="2.6" fill="#8b949e" opacity="0.3"/><rect x="182.0" y="200.8" width="14.2" height="14.2" rx="2.6" fill="#8b949e" opacity="0.3"/><rect x="200.2" y="128.0" width="14.2" height="14.2" rx="2.6" fill="#8b949e" opacity="0.3"/><rect x="200.2" y="146.2" width="14.2" height="14.2" rx="2.6" fill="#8b949e" opacity="0.3"/><rect x="200.2" y="164.4" width="14.2" height="14.2" rx="2.6" fill="#8b949e" opacity="0.3"/><rect x="200.2" y="182.6" width="14.2" height="14.2" rx="2.6" fill="#8b949e" opacity="0.3"/><rect x="200.2" y="200.8" width="14.2" height="14.2" rx="2.6" fill="#8b949e" opacity="0.3"/><rect x="218.4" y="128.0" width="14.2" height="14.2" rx="2.6" fill="#8b949e" opacity="0.3"/><rect x="218.4" y="146.2" width="14.2" height="14.2" rx="2.6" fill="#8b949e" opacity="0.3"/><rect x="218.4" y="164.4" width="14.2" height="14.2" rx="2.6" fill="#8b949e" opacity="0.3"/><rect x="218.4" y="182.6" width="14.2" height="14.2" rx="2.6" fill="#8b949e" opacity="0.3"/><rect x="218.4" y="200.8" width="14.2" height="14.2" rx="2.6" fill="#8b949e" opacity="0.3"/><rect x="236.6" y="128.0" width="14.2" height="14.2" rx="2.6" fill="#8b949e" opacity="0.3"/><rect x="236.6" y="146.2" width="14.2" height="14.2" rx="2.6" fill="#8b949e" opacity="0.3"/><rect x="236.6" y="164.4" width="14.2" height="14.2" rx="2.6" fill="#8b949e" opacity="0.3"/><rect x="236.6" y="182.6" width="14.2" height="14.2" rx="2.6" fill="#8b949e" opacity="0.3"/><rect x="236.6" y="200.8" width="14.2" height="14.2" rx="2.6" fill="#8b949e" opacity="0.3"/><rect x="254.8" y="128.0" width="14.2" height="14.2" rx="2.6" fill="#8b949e" opacity="0.3"/><rect x="254.8" y="146.2" width="14.2" height="14.2" rx="2.6" fill="#8b949e" opacity="0.3"/><rect x="254.8" y="164.4" width="14.2" height="14.2" rx="2.6" fill="#8b949e" opacity="0.3"/><rect x="254.8" y="182.6" width="14.2" height="14.2" rx="2.6" fill="#8b949e" opacity="0.3"/><rect x="254.8" y="200.8" width="14.2" height="14.2" rx="2.6" fill="#8b949e" opacity="0.3"/><rect x="273.0" y="128.0" width="14.2" height="14.2" rx="2.6" fill="#8b949e" opacity="0.3"/><rect x="273.0" y="146.2" width="14.2" height="14.2" rx="2.6" fill="#8b949e" opacity="0.3"/><rect x="273.0" y="164.4" width="14.2" height="14.2" rx="2.6" fill="#8b949e" opacity="0.3"/><rect x="273.0" y="182.6" width="14.2" height="14.2" rx="2.6" fill="#8b949e" opacity="0.3"/><rect x="273.0" y="200.8" width="14.2" height="14.2" rx="2.6" fill="#8b949e" opacity="0.3"/><rect x="291.2" y="128.0" width="14.2" height="14.2" rx="2.6" fill="#8b949e" opacity="0.3"/><rect x="291.2" y="146.2" width="14.2" height="14.2" rx="2.6" fill="#8b949e" opacity="0.3"/><rect x="291.2" y="164.4" width="14.2" height="14.2" rx="2.6" fill="#8b949e" opacity="0.3"/><rect x="291.2" y="182.6" width="14.2" height="14.2" rx="2.6" fill="#8b949e" opacity="0.3"/><rect x="291.2" y="200.8" width="14.2" height="14.2" rx="2.6" fill="#8b949e" opacity="0.3"/><rect x="309.4" y="128.0" width="14.2" height="14.2" rx="2.6" fill="#8b949e" opacity="0.3"/><rect x="309.4" y="146.2" width="14.2" height="14.2" rx="2.6" fill="#8b949e" opacity="0.3"/><rect x="309.4" y="164.4" width="14.2" height="14.2" rx="2.6" fill="#8b949e" opacity="0.3"/><rect x="309.4" y="182.6" width="14.2" height="14.2" rx="2.6" fill="#8b949e" opacity="0.3"/><rect x="309.4" y="200.8" width="14.2" height="14.2" rx="2.6" fill="#8b949e" opacity="0.3"/><rect x="327.6" y="128.0" width="14.2" height="14.2" rx="2.6" fill="#8b949e" opacity="0.3"/><rect x="327.6" y="146.2" width="14.2" height="14.2" rx="2.6" fill="#8b949e" opacity="0.3"/><rect x="327.6" y="164.4" width="14.2" height="14.2" rx="2.6" fill="#8b949e" opacity="0.3"/><rect x="327.6" y="182.6" width="14.2" height="14.2" rx="2.6" fill="#8b949e" opacity="0.3"/><rect x="327.6" y="200.8" width="14.2" height="14.2" rx="2.6" fill="#8b949e" opacity="0.3"/><rect x="345.8" y="128.0" width="14.2" height="14.2" rx="2.6" fill="#8b949e" opacity="0.3"/><rect x="345.8" y="146.2" width="14.2" height="14.2" rx="2.6" fill="#8b949e" opacity="0.3"/><rect x="345.8" y="164.4" width="14.2" height="14.2" rx="2.6" fill="#8b949e" opacity="0.3"/><rect x="345.8" y="182.6" width="14.2" height="14.2" rx="2.6" fill="#8b949e" opacity="0.3"/><rect x="345.8" y="200.8" width="14.2" height="14.2" rx="2.6" fill="#8b949e" opacity="0.3"/><rect x="0" y="234.0" width="11" height="11" rx="2" fill="#d9730d"/><text x="20" y="245.0" font-size="15" fill="#767d86">47 of every 100 resolved by AI</text><text x="0" y="289.0" fill="#767d86"><tspan font-size="30" font-weight="700">3.7s</tspan><tspan font-size="15" dx="8">average first reply</tspan></text><text x="0" y="317.0" font-size="12" fill="#767d86">Updated 3 Oct 2026</text></svg>
