<svg xmlns="http://www.w3.org/2000/svg" width="700" height="176" viewBox="0 0 700 176" role="img"><clipPath id="ch"><rect x="0" y="0" width="700" height="176" rx="12"/></clipPath><rect x="0.5" y="0.5" width="699" height="175" rx="12" fill="#15171b" stroke="#23262c" stroke-width="1"/><rect x="12" y="1" width="676" height="1" rx="0.5" fill="#ffffff" opacity="0.05"/><g clip-path="url(#ch)"><rect x="0" y="0" width="3" height="176" fill="#f39021"/></g><text x="42" y="40" font-family="ui-monospace,SFMono-Regular,'SF Mono',Menlo,Consolas,'Liberation Mono',monospace" font-size="9.5" fill="#83878f" letter-spacing="1.6">SOLO DEVELOPER  ·  ROMANIA</text><text x="40" y="78" font-family="-apple-system,BlinkMacSystemFont,'Segoe UI',Helvetica,Arial,sans-serif" font-size="38" fill="#f5f6f7" font-weight="700" letter-spacing="-1">Dani</text><text x="40" y="112" font-family="-apple-system,BlinkMacSystemFont,'Segoe UI',Helvetica,Arial,sans-serif" font-size="15" fill="#c9ced4">I build AI support systems for Discord,</text><text x="40" y="133" font-family="-apple-system,BlinkMacSystemFont,'Segoe UI',Helvetica,Arial,sans-serif" font-size="15" fill="#c9ced4">and built my own AI platform along the way.</text><g opacity="0.55"><line x1="40" y1="164" x2="40" y2="169" stroke="#2d3036" stroke-width="1"/><line x1="48" y1="164" x2="48" y2="167" stroke="#2d3036" stroke-width="1"/><line x1="56" y1="164" x2="56" y2="167" stroke="#2d3036" stroke-width="1"/><line x1="64" y1="164" x2="64" y2="167" stroke="#2d3036" stroke-width="1"/><line x1="72" y1="164" x2="72" y2="167" stroke="#2d3036" stroke-width="1"/><line x1="80" y1="164" x2="80" y2="169" stroke="#2d3036" stroke-width="1"/><line x1="88" y1="164" x2="88" y2="167" stroke="#2d3036" stroke-width="1"/><line x1="96" y1="164" x2="96" y2="167" stroke="#2d3036" stroke-width="1"/><line x1="104" y1="164" x2="104" y2="167" stroke="#2d3036" stroke-width="1"/><line x1="112" y1="164" x2="112" y2="167" stroke="#2d3036" stroke-width="1"/><line x1="120" y1="164" x2="120" y2="169" stroke="#2d3036" stroke-width="1"/><line x1="128" y1="164" x2="128" y2="167" stroke="#2d3036" stroke-width="1"/><line x1="136" y1="164" x2="136" y2="167" stroke="#2d3036" stroke-width="1"/><line x1="144" y1="164" x2="144" y2="167" stroke="#2d3036" stroke-width="1"/><line x1="152" y1="164" x2="152" y2="167" stroke="#2d3036" stroke-width="1"/><line x1="160" y1="164" x2="160" y2="169" stroke="#2d3036" stroke-width="1"/><line x1="168" y1="164" x2="168" y2="167" stroke="#2d3036" stroke-width="1"/><line x1="176" y1="164" x2="176" y2="167" stroke="#2d3036" stroke-width="1"/><line x1="184" y1="164" x2="184" y2="167" stroke="#2d3036" stroke-width="1"/><line x1="192" y1="164" x2="192" y2="167" stroke="#2d3036" stroke-width="1"/><line x1="200" y1="164" x2="200" y2="169" stroke="#2d3036" stroke-width="1"/><line x1="208" y1="164" x2="208" y2="167" stroke="#2d3036" stroke-width="1"/><line x1="216" y1="164" x2="216" y2="167" stroke="#2d3036" stroke-width="1"/><line x1="224" y1="164" x2="224" y2="167" stroke="#2d3036" stroke-width="1"/><line x1="232" y1="164" x2="232" y2="167" stroke="#2d3036" stroke-width="1"/><line x1="240" y1="164" x2="240" y2="169" stroke="#2d3036" stroke-width="1"/><line x1="248" y1="164" x2="248" y2="167" stroke="#2d3036" stroke-width="1"/><line x1="256" y1="164" x2="256" y2="167" stroke="#2d3036" stroke-width="1"/><line x1="264" y1="164" x2="264" y2="167" stroke="#2d3036" stroke-width="1"/><line x1="272" y1="164" x2="272" y2="167" stroke="#2d3036" stroke-width="1"/><line x1="280" y1="164" x2="280" y2="169" stroke="#2d3036" stroke-width="1"/><line x1="288" y1="164" x2="288" y2="167" stroke="#2d3036" stroke-width="1"/><line x1="296" y1="164" x2="296" y2="167" stroke="#2d3036" stroke-width="1"/><line x1="304" y1="164" x2="304" y2="167" stroke="#2d3036" stroke-width="1"/><line x1="312" y1="164" x2="312" y2="167" stroke="#2d3036" stroke-width="1"/><line x1="320" y1="164" x2="320" y2="169" stroke="#2d3036" stroke-width="1"/><line x1="328" y1="164" x2="328" y2="167" stroke="#2d3036" stroke-width="1"/><line x1="336" y1="164" x2="336" y2="167" stroke="#2d3036" stroke-width="1"/><line x1="344" y1="164" x2="344" y2="167" stroke="#2d3036" stroke-width="1"/><line x1="352" y1="164" x2="352" y2="167" stroke="#2d3036" stroke-width="1"/><line x1="360" y1="164" x2="360" y2="169" stroke="#2d3036" stroke-width="1"/><line x1="368" y1="164" x2="368" y2="167" stroke="#2d3036" stroke-width="1"/><line x1="376" y1="164" x2="376" y2="167" stroke="#2d3036" stroke-width="1"/><line x1="384" y1="164" x2="384" y2="167" stroke="#2d3036" stroke-width="1"/><line x1="392" y1="164" x2="392" y2="167" stroke="#2d3036" stroke-width="1"/><line x1="400" y1="164" x2="400" y2="169" stroke="#2d3036" stroke-width="1"/><line x1="408" y1="164" x2="408" y2="167" stroke="#2d3036" stroke-width="1"/><line x1="416" y1="164" x2="416" y2="167" stroke="#2d3036" stroke-width="1"/><line x1="424" y1="164" x2="424" y2="167" stroke="#2d3036" stroke-width="1"/><line x1="432" y1="164" x2="432" y2="167" stroke="#2d3036" stroke-width="1"/><line x1="440" y1="164" x2="440" y2="169" stroke="#2d3036" stroke-width="1"/><line x1="448" y1="164" x2="448" y2="167" stroke="#2d3036" stroke-width="1"/><line x1="456" y1="164" x2="456" y2="167" stroke="#2d3036" stroke-width="1"/><line x1="464" y1="164" x2="464" y2="167" stroke="#2d3036" stroke-width="1"/><line x1="472" y1="164" x2="472" y2="167" stroke="#2d3036" stroke-width="1"/><line x1="480" y1="164" x2="480" y2="169" stroke="#2d3036" stroke-width="1"/><line x1="488" y1="164" x2="488" y2="167" stroke="#2d3036" stroke-width="1"/><line x1="496" y1="164" x2="496" y2="167" stroke="#2d3036" stroke-width="1"/><line x1="504" y1="164" x2="504" y2="167" stroke="#2d3036" stroke-width="1"/><line x1="512" y1="164" x2="512" y2="167" stroke="#2d3036" stroke-width="1"/><line x1="520" y1="164" x2="520" y2="169" stroke="#2d3036" stroke-width="1"/><line x1="528" y1="164" x2="528" y2="167" stroke="#2d3036" stroke-width="1"/><line x1="536" y1="164" x2="536" y2="167" stroke="#2d3036" stroke-width="1"/><line x1="544" y1="164" x2="544" y2="167" stroke="#2d3036" stroke-width="1"/><line x1="552" y1="164" x2="552" y2="167" stroke="#2d3036" stroke-width="1"/><line x1="560" y1="164" x2="560" y2="169" stroke="#2d3036" stroke-width="1"/><line x1="568" y1="164" x2="568" y2="167" stroke="#2d3036" stroke-width="1"/><line x1="576" y1="164" x2="576" y2="167" stroke="#2d3036" stroke-width="1"/><line x1="584" y1="164" x2="584" y2="167" stroke="#2d3036" stroke-width="1"/><line x1="592" y1="164" x2="592" y2="167" stroke="#2d3036" stroke-width="1"/><line x1="600" y1="164" x2="600" y2="169" stroke="#2d3036" stroke-width="1"/><line x1="608" y1="164" x2="608" y2="167" stroke="#2d3036" stroke-width="1"/><line x1="616" y1="164" x2="616" y2="167" stroke="#2d3036" stroke-width="1"/><line x1="624" y1="164" x2="624" y2="167" stroke="#2d3036" stroke-width="1"/><line x1="632" y1="164" x2="632" y2="167" stroke="#2d3036" stroke-width="1"/><line x1="640" y1="164" x2="640" y2="169" stroke="#2d3036" stroke-width="1"/><line x1="648" y1="164" x2="648" y2="167" stroke="#2d3036" stroke-width="1"/><line x1="656" y1="164" x2="656" y2="167" stroke="#2d3036" stroke-width="1"/></g><line x1="436" y1="30" x2="436" y2="140" stroke="#2d3036" stroke-width="1"/><circle cx="458" cy="37" r="3.5" fill="#f39021"><animate attributeName="opacity" values="1;0.25;1" dur="3s" repeatCount="indefinite"/></circle><text x="468" y="41" font-family="ui-monospace,SFMono-Regular,'SF Mono',Menlo,Consolas,'Liberation Mono',monospace" font-size="9" fill="#83878f" letter-spacing="1.6">STATUS</text><circle cx="458" cy="68.5" r="3.5" fill="#3dd68c"/><text x="470" y="72" font-family="ui-monospace,SFMono-Regular,'SF Mono',Menlo,Consolas,'Liberation Mono',monospace" font-size="10.5" fill="#c9ced4">aiticketbot.com</text><text x="664" y="72" font-family="ui-monospace,SFMono-Regular,'SF Mono',Menlo,Consolas,'Liberation Mono',monospace" font-size="9" fill="#3dd68c" font-weight="700" text-anchor="end">UP</text><circle cx="458" cy="95.5" r="3.5" fill="#3dd68c"/><text x="470" y="99" font-family="ui-monospace,SFMono-Regular,'SF Mono',Menlo,Consolas,'Liberation Mono',monospace" font-size="10.5" fill="#c9ced4">nexbrain.dev</text><text x="664" y="99" font-family="ui-monospace,SFMono-Regular,'SF Mono',Menlo,Consolas,'Liberation Mono',monospace" font-size="9" fill="#3dd68c" font-weight="700" text-anchor="end">UP</text><circle cx="458" cy="122.5" r="3.5" fill="#3dd68c"/><text x="470" y="126" font-family="ui-monospace,SFMono-Regular,'SF Mono',Menlo,Consolas,'Liberation Mono',monospace" font-size="10.5" fill="#c9ced4">micoapp.io</text><text x="664" y="126" font-family="ui-monospace,SFMono-Regular,'SF Mono',Menlo,Consolas,'Liberation Mono',monospace" font-size="9" fill="#3dd68c" font-weight="700" text-anchor="end">UP</text></svg>
